<?xml version="1.0" standalone="no"?>
<!DOCTYPE svg PUBLIC "-//W3C//DTD SVG 20010904//EN"
 "http://www.w3.org/TR/2001/REC-SVG-20010904/DTD/svg10.dtd">
<svg version="1.0" xmlns="http://www.w3.org/2000/svg"
 width="639.000000pt" height="426.000000pt" viewBox="0 0 639.000000 426.000000"
 preserveAspectRatio="xMidYMid meet">
<metadata>
Created by potrace 1.16, written by Peter Selinger 2001-2019
</metadata>
<g transform="translate(0.000000,426.000000) scale(0.100000,-0.100000)"
fill="#000000" stroke="none">
<!-- "#FD1056" jj red color -->
<path fill="#91C3DC" d="M4385 4140 c-691 -55 -1299 -455 -1629 -1072 l-47 -86 182 -374 c100
-205 185 -377 190 -382 5 -6 9 10 9 38 0 26 9 94 21 149 88 435 362 802 751
1007 417 219 911 225 1330 14 144 -72 263 -159 386 -281 l112 -113 320 0 c231
0 320 3 320 11 0 16 -54 110 -121 209 -310 462 -821 784 -1370 864 -135 19
-328 26 -454 16z"/>
<!-- "#08fdd8" jj green color -->
<path fill='#4086AA' d="M1826 3789 c-983 -2013 -1644 -3366 -1712 -3507 l-83 -172 1489 0
c820 0 1490 2 1490 4 0 1 -56 118 -126 259 l-125 257 -894 2 -894 3 516 1058
c284 581 520 1054 525 1049 4 -4 180 -361 391 -793 211 -431 410 -827 441
-878 236 -387 578 -675 980 -826 355 -132 737 -165 1104 -94 511 99 993 417
1280 847 67 99 132 213 132 230 0 9 -85 12 -322 12 l-323 0 -58 -70 c-104
-126 -274 -258 -437 -340 -536 -270 -1164 -190 -1622 205 -121 105 -261 282
-329 417 -16 32 -67 141 -113 241 -46 100 -233 488 -416 862 -183 374 -425
869 -537 1100 -113 231 -207 422 -209 424 -2 2 -69 -128 -148 -290z"/>
</g>
</svg>
